<svg width="42" height="42" viewBox="0 0 42 42" fill="none" xmlns="http://www.w3.org/2000/svg">
<path d="M7 14C6.0335 14 5.25 13.2165 5.25 12.25C5.25 11.2835 6.0335 10.5 7 10.5H24.5C25.4665 10.5 26.25 11.2835 26.25 12.25C26.25 13.2165 25.4665 14 24.5 14H7Z" fill="white"/>
<path d="M5.25 21C5.25 21.9665 6.0335 22.75 7 22.75H35C35.9665 22.75 36.75 21.9665 36.75 21C36.75 20.0335 35.9665 19.25 35 19.25H7C6.0335 19.25 5.25 20.0335 5.25 21Z" fill="white"/>
<path d="M5.25 29.75C5.25 30.7165 6.0335 31.5 7 31.5H24.5C25.4665 31.5 26.25 30.7165 26.25 29.75C26.25 28.7835 25.4665 28 24.5 28H7C6.0335 28 5.25 28.7835 5.25 29.75Z" fill="white"/>
</svg>
