<svg width="186" height="37" viewBox="0 0 186 37" fill="none" xmlns="http://www.w3.org/2000/svg">
<path d="M38.6742 3.39252C32.6479 -0.538067 24.3811 8.63334 20.3635 14.2595C17.2731 7.55435 9.91553 -3.87734 2.97999 1.31163C-6.29112 8.24801 8.19499 36.5315 17.4658 36.9939C26.7366 37.4564 50.7534 11.271 38.6742 3.39252Z" fill="white"/>
<path d="M68.3111 16.6662H66.3168C66.2401 16.2401 66.0973 15.8651 65.8885 15.5412C65.6797 15.2173 65.424 14.9425 65.1214 14.7166C64.8189 14.4908 64.4801 14.3203 64.1051 14.2053C63.7344 14.0902 63.3402 14.0327 62.9226 14.0327C62.1683 14.0327 61.4929 14.2223 60.8963 14.6016C60.304 14.9808 59.8352 15.5369 59.4901 16.2699C59.1491 17.0028 58.9787 17.8977 58.9787 18.9545C58.9787 20.0199 59.1491 20.919 59.4901 21.652C59.8352 22.3849 60.3061 22.9389 60.9027 23.3139C61.4993 23.6889 62.1705 23.8764 62.9162 23.8764C63.3295 23.8764 63.7216 23.821 64.0923 23.7102C64.4673 23.5952 64.8061 23.4268 65.1087 23.2053C65.4112 22.9837 65.6669 22.7131 65.8757 22.3935C66.0888 22.0696 66.2358 21.6989 66.3168 21.2812L68.3111 21.2876C68.2045 21.9311 67.9979 22.5234 67.6911 23.0646C67.3885 23.6016 66.9986 24.0661 66.5213 24.4581C66.0483 24.8459 65.5071 25.1463 64.8977 25.3594C64.2884 25.5724 63.6236 25.679 62.9034 25.679C61.7699 25.679 60.7599 25.4105 59.8736 24.8736C58.9872 24.3324 58.2884 23.5589 57.777 22.5533C57.2699 21.5476 57.0163 20.348 57.0163 18.9545C57.0163 17.5568 57.272 16.3572 57.7834 15.3558C58.2947 14.3501 58.9936 13.5788 59.88 13.0419C60.7663 12.5007 61.7741 12.2301 62.9034 12.2301C63.598 12.2301 64.2457 12.3303 64.8466 12.5305C65.4517 12.7266 65.995 13.0163 66.4766 13.3999C66.9581 13.7791 67.3565 14.2436 67.6719 14.7933C67.9872 15.3388 68.2003 15.9631 68.3111 16.6662ZM70.6745 25.5V12.4091H78.8819V14.1094H72.6497V18.098H78.4537V19.7919H72.6497V23.7997H78.9586V25.5H70.6745ZM81.5202 25.5V12.4091H86.1864C87.2049 12.4091 88.0487 12.5945 88.7177 12.9652C89.3867 13.3359 89.8874 13.843 90.2198 14.4865C90.5522 15.1257 90.7184 15.8459 90.7184 16.647C90.7184 17.4524 90.5501 18.1768 90.2134 18.8203C89.881 19.4595 89.3782 19.9666 88.7049 20.3416C88.0359 20.7124 87.1942 20.8977 86.18 20.8977H82.9712V19.223H86.0011C86.6445 19.223 87.1665 19.1122 87.5671 18.8906C87.9677 18.6648 88.2617 18.358 88.4492 17.9702C88.6367 17.5824 88.7305 17.1413 88.7305 16.647C88.7305 16.1527 88.6367 15.7138 88.4492 15.3303C88.2617 14.9467 87.9656 14.6463 87.5607 14.429C87.1602 14.2116 86.6317 14.103 85.9755 14.103H83.4954V25.5H81.5202ZM93.0339 25.5V12.4091H97.8279C98.7569 12.4091 99.5261 12.5625 100.135 12.8693C100.745 13.1719 101.201 13.5831 101.503 14.103C101.806 14.6186 101.957 15.2003 101.957 15.848C101.957 16.3935 101.857 16.8537 101.657 17.2287C101.456 17.5994 101.188 17.8977 100.851 18.1236C100.519 18.3452 100.153 18.5071 99.752 18.6094V18.7372C100.187 18.7585 100.611 18.8991 101.024 19.1591C101.442 19.4148 101.787 19.7791 102.059 20.2521C102.332 20.7251 102.469 21.3004 102.469 21.978C102.469 22.647 102.311 23.2479 101.996 23.7805C101.684 24.3089 101.203 24.7287 100.551 25.0398C99.899 25.3466 99.0659 25.5 98.0517 25.5H93.0339ZM95.0091 23.8061H97.8599C98.8059 23.8061 99.4835 23.6229 99.8926 23.2564C100.302 22.8899 100.506 22.4318 100.506 21.8821C100.506 21.4687 100.402 21.0895 100.193 20.7443C99.9842 20.3991 99.6859 20.1243 99.2981 19.9197C98.9146 19.7152 98.4586 19.6129 97.9302 19.6129H95.0091V23.8061ZM95.0091 18.0724H97.6554C98.0985 18.0724 98.497 17.9872 98.8507 17.8168C99.2086 17.6463 99.492 17.4077 99.7008 17.1009C99.9139 16.7898 100.02 16.4233 100.02 16.0014C100.02 15.4602 99.8308 15.0064 99.4515 14.6399C99.0723 14.2734 98.4906 14.0902 97.7065 14.0902H95.0091V18.0724ZM104.811 12.4091H106.767V22.0227H106.889L113.549 12.4091H115.377V25.5H113.402V15.8991H113.281L106.633 25.5H104.811V12.4091ZM129.131 16.6662H127.137C127.06 16.2401 126.918 15.8651 126.709 15.5412C126.5 15.2173 126.244 14.9425 125.942 14.7166C125.639 14.4908 125.3 14.3203 124.925 14.2053C124.555 14.0902 124.161 14.0327 123.743 14.0327C122.989 14.0327 122.313 14.2223 121.717 14.6016C121.124 14.9808 120.656 15.5369 120.31 16.2699C119.969 17.0028 119.799 17.8977 119.799 18.9545C119.799 20.0199 119.969 20.919 120.31 21.652C120.656 22.3849 121.126 22.9389 121.723 23.3139C122.32 23.6889 122.991 23.8764 123.737 23.8764C124.15 23.8764 124.542 23.821 124.913 23.7102C125.288 23.5952 125.626 23.4268 125.929 23.2053C126.232 22.9837 126.487 22.7131 126.696 22.3935C126.909 22.0696 127.056 21.6989 127.137 21.2812L129.131 21.2876C129.025 21.9311 128.818 22.5234 128.511 23.0646C128.209 23.6016 127.819 24.0661 127.342 24.4581C126.869 24.8459 126.327 25.1463 125.718 25.3594C125.109 25.5724 124.444 25.679 123.724 25.679C122.59 25.679 121.58 25.4105 120.694 24.8736C119.808 24.3324 119.109 23.5589 118.597 22.5533C118.09 21.5476 117.837 20.348 117.837 18.9545C117.837 17.5568 118.092 16.3572 118.604 15.3558C119.115 14.3501 119.814 13.5788 120.7 13.0419C121.587 12.5007 122.594 12.2301 123.724 12.2301C124.418 12.2301 125.066 12.3303 125.667 12.5305C126.272 12.7266 126.815 13.0163 127.297 13.3999C127.778 13.7791 128.177 14.2436 128.492 14.7933C128.808 15.3388 129.021 15.9631 129.131 16.6662ZM136.259 25.5V12.4091H138.234V18.098H144.76V12.4091H146.741V25.5H144.76V19.7919H138.234V25.5H136.259ZM158.899 25.5H156.918V14.103H154.438C153.79 14.103 153.263 14.201 152.859 14.397C152.454 14.5888 152.158 14.8658 151.97 15.228C151.783 15.5902 151.689 16.0185 151.689 16.5128C151.689 17.0028 151.783 17.4226 151.97 17.772C152.158 18.1214 152.452 18.3878 152.852 18.571C153.253 18.7543 153.775 18.8459 154.418 18.8459H157.774V20.5462H154.233C153.223 20.5462 152.381 20.3778 151.708 20.0412C151.039 19.7045 150.536 19.2337 150.2 18.6286C149.867 18.0192 149.701 17.3139 149.701 16.5128C149.701 15.7074 149.867 14.9979 150.2 14.3842C150.532 13.7663 151.033 13.2827 151.702 12.9332C152.375 12.5838 153.217 12.4091 154.227 12.4091H158.899V25.5ZM152.437 19.5938H154.623L151.446 25.5H149.202L152.437 19.5938ZM161.782 25.5V12.4091H163.757V18.098H170.283V12.4091H172.265V25.5H170.283V19.7919H163.757V25.5H161.782ZM176.528 17.6889H180.057C181.028 17.6889 181.855 17.8466 182.537 18.1619C183.219 18.4773 183.739 18.9226 184.097 19.4979C184.459 20.0732 184.638 20.7507 184.634 21.5305C184.638 22.3104 184.459 22.9986 184.097 23.5952C183.739 24.1918 183.219 24.6584 182.537 24.995C181.855 25.3317 181.028 25.5 180.057 25.5H175.154V12.4091H177.136V23.8381H180.057C180.624 23.8381 181.101 23.7273 181.489 23.5057C181.881 23.2841 182.177 22.9964 182.377 22.6428C182.582 22.2891 182.684 21.9098 182.684 21.505C182.684 20.9169 182.458 20.4119 182.006 19.9901C181.555 19.5639 180.905 19.3509 180.057 19.3509H176.528V17.6889Z" fill="white"/>
</svg>
